<svg width="82" height="26" viewBox="0 0 82 26" fill="none" xmlns="http://www.w3.org/2000/svg">
<path fill-rule="evenodd" clip-rule="evenodd" d="M29 13.0004C29 19.0756 33.9252 24 40.0004 24C46.0748 24 51 19.0756 51 13.0004C51 6.92522 46.0748 2 40.0004 2C33.9252 2 29 6.92522 29 13.0004Z" stroke="#252535" stroke-width="4"/>
<path fill-rule="evenodd" clip-rule="evenodd" d="M2 13.0004C2 19.0756 6.92522 24 12.9996 24C19.0748 24 24 19.0756 24 13.0004C24 6.92522 19.0748 2 12.9996 2C6.92522 2 2 6.92522 2 13.0004Z" stroke="#252535" stroke-width="4"/>
<path d="M25 13.5H29" stroke="#252535" stroke-width="4"/>
<path d="M51 12.5H82" stroke="#252535" stroke-width="4"/>
</svg>
