<svg width="390" height="484" viewBox="0 0 390 484" fill="none" xmlns="http://www.w3.org/2000/svg">
<path d="M223.66 191.758L224.513 162.456C224.513 162.456 188.715 165.291 181.058 161.334C181.058 161.334 171.699 113.37 182.861 86.8086L183.088 85.7743L258.63 76.9841L262.062 121.23C264.606 113.765 286.411 104.171 291.9 114.862C303.797 138.028 261.26 153.627 261.26 153.627L265.579 192.111" fill="#FFA093"/>
<path opacity="0.403344" fill-rule="evenodd" clip-rule="evenodd" d="M224.513 162.456L248.652 157.307L224.629 173.449L224.513 162.456Z" fill="black"/>
<path fill-rule="evenodd" clip-rule="evenodd" d="M214.112 120.336C213.615 123.067 215.439 125.682 218.185 126.176C220.931 126.67 223.56 124.857 224.056 122.125C224.553 119.393 222.729 116.779 219.984 116.285C217.237 115.791 214.608 117.604 214.112 120.336Z" fill="#0D0B6D"/>
<path fill-rule="evenodd" clip-rule="evenodd" d="M187.877 120.336C187.38 123.067 189.204 125.682 191.949 126.176C194.696 126.67 197.325 124.857 197.821 122.125C198.318 119.393 196.494 116.779 193.748 116.285C191.002 115.791 188.373 117.604 187.877 120.336Z" fill="#0D0B6D"/>
<path fill-rule="evenodd" clip-rule="evenodd" d="M204.601 114.572L196.261 134.856L206.257 134.983L204.601 114.572Z" fill="#D34040"/>
<path fill-rule="evenodd" clip-rule="evenodd" d="M211.047 147.906C211.047 147.906 205.901 152.105 199.512 149.414L211.047 147.906Z" fill="white"/>
<path d="M211.047 147.906C211.047 147.906 205.901 152.105 199.512 149.414" stroke="#252535" stroke-width="4"/>
<path fill-rule="evenodd" clip-rule="evenodd" d="M219.736 143.523C219.736 143.523 216.953 136.286 203.77 136.829C190.588 137.371 188.953 146.338 188.953 146.338L219.736 143.523Z" fill="#823600"/>
<path fill-rule="evenodd" clip-rule="evenodd" d="M208 121C208 127.076 212.925 132 219 132C225.075 132 230 127.076 230 121C230 114.925 225.075 110 219 110C212.925 110 208 114.925 208 121Z" stroke="#252535" stroke-width="4"/>
<path fill-rule="evenodd" clip-rule="evenodd" d="M181 121C181 127.076 185.925 132 192 132C198.075 132 203 127.076 203 121C203 114.925 198.075 110 192 110C185.925 110 181 114.925 181 121Z" stroke="#252535" stroke-width="4"/>
<path d="M204 121.5H208" stroke="#252535" stroke-width="4"/>
<path d="M230 120.5H261" stroke="#252535" stroke-width="4"/>
<path fill-rule="evenodd" clip-rule="evenodd" d="M178.595 95.7839L281.896 98.4169L281.975 96.7511L283.205 71.2631L284.142 51.865C284.445 45.6497 279.265 40.5718 273.089 41.0286L190.022 47.1543C184.815 47.5304 180.725 51.7575 180.466 56.9877L180.021 66.1494L178.791 91.8075L178.595 95.7839Z" fill="#2437A8"/>
<path fill-rule="evenodd" clip-rule="evenodd" d="M178.791 91.8071C193.73 93.8221 211.157 95.4073 229.786 96.3118C248.826 97.2432 266.68 97.3417 281.976 96.7506L283.206 71.2627C268.044 69.1849 250.261 67.546 231.213 66.6236C212.582 65.7191 195.094 65.6026 180.021 66.1489L178.791 91.8071Z" fill="#5E93D1"/>
<path fill-rule="evenodd" clip-rule="evenodd" d="M178.905 102.231L180.087 96.1185C182.125 87.9876 243.394 91.0916 243.394 91.0916L242.558 102.027L243.589 107.255C293.165 108.682 331.635 104.33 331.997 96.8145C332.393 88.6146 287.272 79.7547 231.216 77.0241C175.161 74.2944 129.398 78.7284 129.003 86.9283C128.739 92.4101 148.817 98.1873 178.905 102.231L178.905 102.231Z" fill="#2437A8"/>
<path fill-rule="evenodd" clip-rule="evenodd" d="M254.677 132.215C254.752 132.043 254.831 131.868 254.913 131.691C262.739 114.863 276.46 111.364 280.247 110.706C280.894 105.259 281.387 100.907 281.387 100.907C281.993 93.4645 243.394 91.0912 243.394 91.0912C243.394 91.0912 239.627 126.147 242.007 129.138C243.487 131.002 248.697 131.864 254.677 132.215Z" fill="#19141E"/>
<path fill-rule="evenodd" clip-rule="evenodd" d="M76.6701 207.127L77.1533 198.299C77.1533 198.299 77.1435 192.156 76.3898 185.525C76.2007 183.861 75.7854 182.122 75.3419 180.263H75.3417C74.0172 174.716 72.4414 168.115 75.8873 159.345C80.4872 147.648 69.4899 155.724 67.0546 161.288C66.1137 163.439 65.8397 166.688 65.5678 169.912C65.2534 173.641 64.9419 177.334 63.6046 179.249C61.498 178.038 60.0967 176.462 60.0967 176.462L36.3915 144.099C35.6281 143.011 34.2173 142.686 33.0865 143.327L31.811 144.059C30.4676 144.832 30.0425 146.642 30.9025 147.964C32.547 150.505 35.4171 154.789 38.4174 159.267L38.4182 159.269C43.8629 167.396 49.7351 176.162 49.4859 176.299L48.8578 177.103L21.0164 146.205C20.1468 145.177 18.6876 144.994 17.6149 145.778L15.943 146.997C14.7254 147.884 14.4644 149.653 15.3729 150.873C18.3416 154.908 25.6911 163.648 31.8094 170.923L31.81 170.924C37.1032 177.217 41.4749 182.416 41.2911 182.524L40.46 183.369L14.5418 159.275C13.6238 158.196 12.0583 158.074 10.9951 158.979L9.72932 160.067C8.61791 161.014 8.45361 162.732 9.36205 163.892L33.8403 188.118L33.1348 189.288L11.8842 173.574C10.9082 172.659 9.43939 172.659 8.45361 173.564L7.86417 174.123C6.82038 175.1 6.70449 176.778 7.61292 177.907C9.05964 179.708 11.9226 182.076 15.3356 184.896C19.2635 188.144 23.9198 191.992 27.9841 196.276C30.2223 198.634 32.0274 200.948 33.856 203.29H33.8563C36.8438 207.118 39.8947 211.028 45.0019 215.355C48.0499 217.948 50.8085 219.456 53.434 220.891C53.8052 221.094 54.1737 221.295 54.54 221.498L76.6701 207.127ZM267.73 186.872C267.73 186.872 251.353 186.839 239.534 186.797C227.715 186.755 212.853 192.013 212.853 192.013C212.853 192.013 205.118 210.399 231.984 208.733C258.849 207.066 267.73 186.872 267.73 186.872ZM357.308 261.268C357.308 261.268 383.524 302.909 382.93 326.067C382.228 353.371 299.753 420.462 299.753 420.462L278.38 402.039L330.301 325.442L311.419 282.881L357.308 261.268Z" fill="#FFA093"/>
<path d="M284.591 368.65L271.824 386.778L310.28 422.246C310.28 422.246 380.853 367.517 383.032 324.607C384.419 297.275 361.82 258.263 361.82 258.263C361.82 258.263 333.455 210.296 300.667 194.109C293.937 190.786 277.623 188.015 267.733 186.872C264.702 186.521 266.514 187.771 265.473 189.887C264.387 192.097 261.076 195.37 258.787 197.818C254.022 202.912 244.63 206.769 239.586 207.558C235.742 208.16 228.312 209.094 224.738 208.586C221.164 208.078 217.278 206.37 216.239 205.357C215.201 204.342 213.656 203.074 212.854 201.119C212.053 199.164 212.094 199.724 212.094 197.921C212.094 196.118 212.182 196.385 212.35 195.526C212.515 194.668 212.515 194.152 212.614 193.709C213.049 191.746 212.854 192.013 212.854 192.013C193.499 198.198 183.694 200.487 176.643 209.487L122.754 249.5L85.8828 198.595L38.3083 232.392C38.3083 232.392 80.4315 315.426 110.96 324.606C135.551 332.002 160.463 309.004 169.222 299.78L158.814 355.677C157.147 365.328 165.134 368.981 172.25 368.639L284.591 368.65Z" fill="white"/>
<path opacity="0.201242" fill-rule="evenodd" clip-rule="evenodd" d="M169.384 299.813L175.826 272.883L158.435 309.687L169.384 299.813Z" fill="black"/>
<path opacity="0.200591" d="M289.368 362.159L319.399 317.096L283.122 258.888" stroke="black" stroke-width="5"/>
</svg>
