<svg width="390" height="484" viewBox="0 0 390 484" fill="none" xmlns="http://www.w3.org/2000/svg">
<path d="M223.66 191.758L224.513 162.456C224.513 162.456 188.715 165.291 181.058 161.334C181.058 161.334 171.699 113.37 182.861 86.8086L183.088 85.7743L258.63 76.9841L262.062 121.23C264.606 113.765 286.411 104.171 291.9 114.862C303.797 138.028 261.26 153.627 261.26 153.627L265.579 192.111" fill="#FFA093"/>
<path opacity="0.403344" fill-rule="evenodd" clip-rule="evenodd" d="M224.513 162.456L248.652 157.307L224.629 173.449L224.513 162.456Z" fill="black"/>
<path fill-rule="evenodd" clip-rule="evenodd" d="M214.112 120.336C213.615 123.067 215.439 125.682 218.185 126.176C220.931 126.67 223.56 124.857 224.056 122.125C224.553 119.393 222.729 116.779 219.984 116.285C217.237 115.791 214.608 117.604 214.112 120.336Z" fill="#0D0B6D"/>
<path fill-rule="evenodd" clip-rule="evenodd" d="M187.877 120.336C187.38 123.067 189.204 125.682 191.949 126.176C194.696 126.67 197.325 124.857 197.821 122.125C198.318 119.393 196.494 116.779 193.748 116.285C191.002 115.791 188.373 117.604 187.877 120.336Z" fill="#0D0B6D"/>
<path fill-rule="evenodd" clip-rule="evenodd" d="M204.601 114.572L196.261 134.856L206.257 134.983L204.601 114.572Z" fill="#D34040"/>
<path fill-rule="evenodd" clip-rule="evenodd" d="M211.047 147.906C211.047 147.906 205.901 152.105 199.512 149.414L211.047 147.906Z" fill="white"/>
<path d="M211.047 147.906C211.047 147.906 205.901 152.105 199.512 149.414" stroke="#252535" stroke-width="4"/>
<path fill-rule="evenodd" clip-rule="evenodd" d="M219.736 143.523C219.736 143.523 216.953 136.286 203.77 136.829C190.588 137.371 188.953 146.338 188.953 146.338L219.736 143.523Z" fill="#823600"/>
<path fill-rule="evenodd" clip-rule="evenodd" d="M208 121C208 127.076 212.925 132 219 132C225.075 132 230 127.076 230 121C230 114.925 225.075 110 219 110C212.925 110 208 114.925 208 121Z" stroke="#252535" stroke-width="4"/>
<path fill-rule="evenodd" clip-rule="evenodd" d="M181 121C181 127.076 185.925 132 192 132C198.075 132 203 127.076 203 121C203 114.925 198.075 110 192 110C185.925 110 181 114.925 181 121Z" stroke="#252535" stroke-width="4"/>
<path d="M204 121.5H208" stroke="#252535" stroke-width="4"/>
<path d="M230 120.5H261" stroke="#252535" stroke-width="4"/>
<path fill-rule="evenodd" clip-rule="evenodd" d="M178.595 95.7839L281.896 98.4169L281.975 96.7511L283.205 71.2631L284.142 51.865C284.445 45.6497 279.265 40.5718 273.089 41.0286L190.022 47.1543C184.815 47.5304 180.725 51.7575 180.466 56.9877L180.021 66.1494L178.791 91.8075L178.595 95.7839Z" fill="#2437A8"/>
<path fill-rule="evenodd" clip-rule="evenodd" d="M178.791 91.8071C193.73 93.8221 211.157 95.4073 229.786 96.3118C248.826 97.2432 266.68 97.3417 281.976 96.7506L283.206 71.2627C268.044 69.1849 250.261 67.546 231.213 66.6236C212.582 65.7191 195.094 65.6026 180.021 66.1489L178.791 91.8071Z" fill="#5E93D1"/>
<path fill-rule="evenodd" clip-rule="evenodd" d="M178.905 102.231L180.087 96.1185C182.125 87.9876 243.394 91.0916 243.394 91.0916L242.558 102.027L243.589 107.255C293.165 108.682 331.635 104.33 331.997 96.8145C332.393 88.6146 287.272 79.7547 231.216 77.0241C175.161 74.2944 129.398 78.7284 129.003 86.9283C128.739 92.4101 148.817 98.1873 178.905 102.231L178.905 102.231Z" fill="#2437A8"/>
<path fill-rule="evenodd" clip-rule="evenodd" d="M254.677 132.215C254.752 132.043 254.831 131.868 254.913 131.691C262.739 114.863 276.46 111.364 280.247 110.706C280.894 105.259 281.387 100.907 281.387 100.907C281.993 93.4645 243.394 91.0912 243.394 91.0912C243.394 91.0912 239.627 126.147 242.007 129.138C243.487 131.002 248.697 131.864 254.677 132.215Z" fill="#19141E"/>
<path fill-rule="evenodd" clip-rule="evenodd" d="M371.679 288.838C369.574 317.304 345.594 331.37 326.871 338.052L328.334 345.905C330.61 358.126 320.464 369.301 307.088 369.301H184.662C171.531 369.301 161.451 358.511 163.321 346.46L164.53 338.676C145.171 332.305 118.339 319.063 119.012 294.709C120.054 257.059 161.197 221.638 183.07 205.421C190.985 196.83 202.342 193.425 218.662 188.531L218.663 188.53C220.511 187.976 222.422 187.404 224.398 186.802C224.398 186.802 276.918 178.221 303.511 190.726C310.485 194.005 316.224 198.687 320.933 204.006C342.6 221.601 374.281 253.623 371.679 288.838Z" fill="#1E9DBC"/>
<path opacity="0.199009" d="M180.91 262.428L183.932 263.859L181.991 267.958L178.65 264.89L180.91 262.428ZM194.716 233.275L191.695 231.844L193.126 228.822L196.147 230.253L194.716 233.275ZM200.759 236.137L202.189 233.116L205.21 234.547L203.779 237.568L200.759 236.137ZM185.011 269.389L181.991 267.958L185.011 269.389ZM183.071 273.488L186.092 274.919L184.151 279.018L180.81 275.95L183.071 273.488ZM179.729 270.42L177.47 272.883L179.729 270.42ZM175.619 266.646L173.358 269.109L170.895 266.848L173.156 264.385L175.619 266.646ZM180.14 261.719L177.677 259.459L179.938 256.996L182.4 259.257L180.14 261.719ZM178.97 266.526L175.948 265.095L178.97 266.526ZM180.91 262.428L177.889 260.996L179.831 256.898L183.171 259.965L180.91 262.428ZM178.801 266.881L177.371 269.902L174.35 268.472L175.781 265.45L178.801 266.881ZM181.712 268.26L183.143 265.239L187.241 267.18L184.175 270.522L181.712 268.26ZM179.729 270.42L177.47 272.883L175.007 270.622L177.268 268.16L179.729 270.42ZM195.477 284.877L197.939 287.138L195.679 289.6L193.216 287.34L195.477 284.877ZM199.998 279.951L202.258 277.488L204.721 279.749L202.461 282.211L199.998 279.951ZM184.252 265.495L181.991 267.958L184.252 265.495ZM294.266 265.834L297.264 264.352L294.266 265.834ZM275.548 227.958L272.551 229.44L271.07 226.443L274.066 224.961L275.548 227.958ZM295.756 268.847L297.252 271.836L294.248 273.341L292.759 270.328L295.756 268.847ZM298.761 267.343L297.264 264.352L298.761 267.343ZM309.357 262.038L312.346 260.541L313.842 263.53L310.854 265.026L309.357 262.038ZM306.365 256.058L304.869 253.068L307.857 251.571L309.353 254.562L306.365 256.058ZM298.771 259.859L300.267 262.849L297.264 264.352L295.775 261.341L298.771 259.859ZM281.541 224.996L280.061 221.999L283.057 220.517L284.539 223.514L281.541 224.996ZM295.768 261.363L297.264 264.352L295.768 261.363ZM298.771 259.859L297.275 256.87L300.28 255.365L301.769 258.377L298.771 259.859ZM259.692 279.424L256.703 280.921L255.207 277.931L258.196 276.434L259.692 279.424ZM262.684 285.404L264.181 288.394L261.192 289.891L259.696 286.9L262.684 285.404ZM298.761 267.343L301.749 265.846L303.245 268.835L300.257 270.332L298.761 267.343ZM298.222 266.266L295.232 267.763L293.729 264.758L296.74 263.269L298.222 266.266ZM301.209 264.79L304.205 263.308L305.687 266.305L302.69 267.787L301.209 264.79ZM300.261 262.872L297.264 264.352L300.261 262.872ZM177.889 260.996L191.695 231.844L197.737 234.706L183.932 263.859L177.889 260.996ZM196.147 230.253L202.189 233.116L199.328 239.158L193.285 236.296L196.147 230.253ZM203.779 237.568L188.033 270.82L181.991 267.958L197.737 234.706L203.779 237.568ZM188.033 270.82L186.092 274.919L180.049 272.057L181.991 267.958L188.033 270.82ZM180.81 275.95L177.47 272.883L181.991 267.958L185.331 271.025L180.81 275.95ZM177.47 272.883L173.358 269.109L177.879 264.183L181.991 267.958L177.47 272.883ZM173.156 264.385L177.677 259.459L182.603 263.981L178.081 268.906L173.156 264.385ZM182.4 259.257L183.171 259.965L178.65 264.89L177.879 264.183L182.4 259.257ZM175.948 265.095L177.889 260.996L183.932 263.859L181.991 267.958L175.948 265.095ZM175.781 265.45L175.948 265.095L181.991 267.958L181.822 268.312L175.781 265.45ZM180.282 271.281L177.371 269.902L180.232 263.859L183.143 265.239L180.282 271.281ZM177.268 268.16L179.251 265.999L184.175 270.522L182.192 272.681L177.268 268.16ZM193.216 287.34L177.47 272.883L181.991 267.958L197.737 282.413L193.216 287.34ZM202.461 282.211L197.939 287.138L193.014 282.617L197.535 277.69L202.461 282.211ZM186.511 263.031L202.258 277.488L197.737 282.413L181.991 267.958L186.511 263.031ZM183.171 259.965L186.511 263.031L181.991 267.958L178.65 264.89L183.171 259.965ZM291.27 267.316L272.551 229.44L278.544 226.477L297.264 264.352L291.27 267.316ZM292.759 270.328L291.27 267.316L297.264 264.352L298.752 267.366L292.759 270.328ZM300.257 270.332L297.252 271.836L294.26 265.857L297.264 264.352L300.257 270.332ZM310.854 265.026L300.257 270.332L297.264 264.352L307.861 259.047L310.854 265.026ZM309.353 254.562L312.346 260.541L306.368 263.534L303.375 257.555L309.353 254.562ZM297.275 256.87L304.869 253.068L307.861 259.047L300.267 262.849L297.275 256.87ZM284.539 223.514L301.768 258.377L295.775 261.341L278.544 226.477L284.539 223.514ZM274.066 224.961L280.061 221.999L283.022 227.993L277.029 230.955L274.066 224.961ZM294.272 258.373L297.275 256.87L300.269 262.849L297.264 264.352L294.272 258.373ZM258.196 276.434L294.272 258.373L297.264 264.352L261.188 282.413L258.196 276.434ZM259.696 286.9L256.703 280.921L262.682 277.928L265.674 283.907L259.696 286.9ZM300.257 270.332L264.181 288.394L261.188 282.413L297.264 264.352L300.257 270.332ZM301.21 264.77L301.749 265.846L295.771 268.839L295.232 267.763L301.21 264.77ZM302.69 267.787L299.703 269.263L296.74 263.269L299.727 261.793L302.69 267.787ZM303.257 261.39L304.205 263.308L298.212 266.272L297.264 264.352L303.257 261.39ZM301.769 258.377L303.257 261.39L297.264 264.352L295.775 261.341L301.769 258.377Z" fill="black"/>
<path opacity="0.203218" fill-rule="evenodd" clip-rule="evenodd" d="M228.686 222.357C228.686 225.623 231.327 228.27 234.584 228.27C237.843 228.27 240.484 225.623 240.484 222.357C240.484 219.091 234.584 210.773 234.584 210.773C234.584 210.773 228.686 219.091 228.686 222.357Z" fill="black"/>
<path opacity="0.195964" d="M285.933 340.115C285.933 340.115 261.321 339.78 261.188 279.046" stroke="black" stroke-width="5"/>
<path opacity="0.199009" d="M177.881 337.279C177.881 337.279 196.639 336.973 196.739 281.515" stroke="black" stroke-width="5"/>
<path opacity="0.203497" d="M233.327 228.269C229.677 254.663 219.96 279.991 226.237 369.269" stroke="black" stroke-width="3"/>
<path fill-rule="evenodd" clip-rule="evenodd" d="M311.344 194.174C311.344 194.174 305.029 162.92 264.748 163C245.854 163.039 241.905 173.55 243.039 184.701C243.071 185.022 244.257 184.859 245.003 184.755C245.168 184.732 245.311 184.712 245.415 184.701C248.279 184.4 249.395 184.338 251.209 184.236C251.543 184.217 251.903 184.197 252.3 184.174C252.371 184.17 252.442 184.166 252.513 184.162L235.138 203.44L223.922 173.767L201.392 193.206L235.552 214.941C235.552 214.941 271.187 192.386 282.914 185.37L311.344 194.174ZM177.895 354.341H226.64H285.781L284.838 340.5C270.003 335.241 261.607 317.27 261.861 279.046L227.994 279.547L198.035 279.99C197.739 313.432 191.667 328.555 178.838 339.556L177.895 354.341Z" fill="#EFEFEF"/>
<path opacity="0.201474" d="M233.327 228.269C229.39 252.224 219.892 279.768 226.168 369.047" stroke="black" stroke-width="3"/>
</svg>
