<svg width="117" height="73" viewBox="0 0 117 73" fill="none" xmlns="http://www.w3.org/2000/svg">
<path d="M107.432 36.2999L116.831 26.6356L111.699 21.5798L103.115 30.4054L102.279 30.0017L104.494 17.5674L97.424 16.2923L95.6493 26.2569C78.5289 15.7095 65.0075 23.9312 65.0075 23.9312C65.0075 23.9312 59.5507 0.830665 44.4453 0.897146C22.9261 0.990792 19.6048 34.5475 19.6048 34.5475C19.6048 34.5475 8.75917 16.298 2.59191 18.9065C-3.57534 21.5157 -3.74534 82.1297 81.8752 52.5905C81.8752 52.5905 74.513 69.3066 94.1297 72.7015C94.1297 72.7015 97.5508 65.5665 109.145 65.1633C109.145 65.1633 126.977 57.8408 107.432 36.2999Z" fill="#19141E"/>
</svg>
