<svg width="115" height="109" viewBox="0 0 115 109" fill="none" xmlns="http://www.w3.org/2000/svg">
<path fill-rule="evenodd" clip-rule="evenodd" d="M88.2475 108.075C90.9985 104.508 94.0628 102.145 96.8324 100.585L96.1797 86.9456L68 82C70.307 97.635 80.52 104.829 88.2475 108.075V108.075Z" fill="#19141E"/>
<path d="M106.816 76.878C106.816 76.878 116.84 40.6801 87.9903 20.7038C52.281 -4.0221 10.9482 60.9393 10.9482 60.9393" fill="#CE3D29"/>
<path fill-rule="evenodd" clip-rule="evenodd" d="M81.0649 12.1709C79.4632 20.3457 84.7496 28.2795 92.8728 29.8914C100.996 31.5041 108.88 26.1839 110.482 18.0091C112.084 9.83354 106.797 1.89978 98.674 0.287874C90.5509 -1.32403 82.6666 3.99608 81.0649 12.1709ZM114.169 81.0399C114.836 77.2703 112.398 73.6519 108.671 72.8816L13.8033 53.2654C10.2287 52.5265 6.68674 54.6677 5.65711 58.191L0.288077 76.5576C-0.90075 80.6236 1.71272 84.8207 5.8669 85.5185L103.423 101.903C107.217 102.54 110.814 99.9852 111.488 96.1745L114.169 81.0399ZM91.958 38.058L108.485 60.8987L66.821 50.9429L66.7174 50.996L66.6561 50.9035L26.2997 41.2601L52.2031 29.1121L66.6561 50.9035L66.821 50.9429L91.958 38.058Z" fill="#2437A8"/>
</svg>
