<svg width="135" height="55" viewBox="0 0 135 55" fill="none" xmlns="http://www.w3.org/2000/svg">
<path fill-rule="evenodd" clip-rule="evenodd" d="M36.007 37.5065L106.73 39.3091L106.784 38.1687L107.626 20.7189L108.267 7.43847C108.475 3.18333 104.929 -0.293127 100.7 0.0195707L43.8305 4.2134C40.266 4.47091 37.4655 7.36489 37.2885 10.9456L36.9834 17.2179L36.1412 34.7842L36.007 37.5065Z" fill="#2437A8"/>
<path fill-rule="evenodd" clip-rule="evenodd" d="M36.1412 34.7839C46.3691 36.1634 58.3002 37.2486 71.054 37.8679C84.089 38.5056 96.3125 38.573 106.784 38.1683L107.627 20.7186C97.2462 19.2961 85.0715 18.1741 72.031 17.5426C59.276 16.9233 47.3028 16.8436 36.9833 17.2176L36.1412 34.7839Z" fill="#5E93D1"/>
<ellipse cx="67.2689" cy="40.5079" rx="66.751" ry="10.2694" transform="rotate(3.64486 67.2689 40.5079)" fill="#2437A8"/>
<ellipse cx="69.9913" cy="42.2342" rx="33.3818" ry="5.54524" transform="rotate(3.33225 69.9913 42.2342)" fill="#5E93D1"/>
</svg>
