<svg width="162" height="155" viewBox="0 0 162 155" fill="none" xmlns="http://www.w3.org/2000/svg">
<path fill-rule="evenodd" clip-rule="evenodd" d="M37.4543 62.0641C37.4543 62.0641 17.2136 88.6846 44.6946 95.751L37.4543 62.0641Z" fill="#19141E"/>
<path d="M75.1674 153.575L75.8403 130.103C75.8403 130.103 46.8733 132.374 40.8278 129.204C40.8278 129.204 36.233 100.682 40.6019 80.4596L64.3869 58.7838L102.773 61.6361L107.13 96.7011C109.139 90.7207 127.424 83.224 131.813 96.6397C137.473 113.939 104.849 123.03 104.849 123.03L108.258 153.857" fill="#5E93D1"/>
<path d="M120.432 60.2999L129.831 50.6356L124.699 45.5798L116.115 54.4054L115.279 54.0017L117.494 41.5674L110.424 40.2923L108.649 50.2569C91.5289 39.7095 78.0075 47.9312 78.0075 47.9312C78.0075 47.9312 72.5507 24.8307 57.4453 24.8971C35.9261 24.9908 32.6048 58.5475 32.6048 58.5475C32.6048 58.5475 21.7592 40.298 15.5919 42.9065C9.42466 45.5157 9.25466 106.13 94.8752 76.5905C94.8752 76.5905 87.513 93.3066 107.13 96.7015C107.13 96.7015 110.551 89.5665 122.145 89.1633C122.145 89.1633 139.977 81.8408 120.432 60.2999Z" fill="#19141E"/>
<path opacity="0.4" fill-rule="evenodd" clip-rule="evenodd" d="M75.8404 130.102L94.8961 125.978L75.9318 138.909L75.8404 130.102Z" fill="black"/>
<path fill-rule="evenodd" clip-rule="evenodd" d="M59.759 94.7841L53.1745 111.033L61.0658 111.134L59.759 94.7841Z" fill="#125475"/>
<path fill-rule="evenodd" clip-rule="evenodd" d="M67.6299 96.3625C67.2375 98.5507 68.6775 100.645 70.8449 101.041C73.013 101.437 75.0884 99.984 75.4801 97.7958C75.8725 95.6076 74.4332 93.5131 72.2651 93.1178C70.0969 92.7217 68.0223 94.1743 67.6299 96.3625Z" fill="#0D0B6D"/>
<path fill-rule="evenodd" clip-rule="evenodd" d="M46.9194 96.3625C46.527 98.5507 47.967 100.645 50.1351 101.041C52.3025 101.437 54.3779 99.984 54.7696 97.7958C55.162 95.6076 53.7227 93.5131 51.5546 93.1178C49.3864 92.7217 47.3118 94.1743 46.9194 96.3625Z" fill="#0D0B6D"/>
<path fill-rule="evenodd" clip-rule="evenodd" d="M69.9581 113.7C69.9581 113.7 67.4244 118.346 61.9485 118.236L69.9581 113.7Z" fill="white"/>
<path d="M69.9581 113.7C69.9581 113.7 67.4244 118.346 61.9485 118.236" stroke="#252535" stroke-width="4"/>
</svg>
