<svg width="162" height="155" viewBox="0 0 162 155" fill="none" xmlns="http://www.w3.org/2000/svg">
<path fill-rule="evenodd" clip-rule="evenodd" d="M39.7182 76.597L122.061 78.6958L122.124 77.368L123.105 57.0512L123.852 41.5886C124.093 36.6344 119.964 32.5867 115.041 32.9508L48.8271 37.8337C44.6769 38.1335 41.4163 41.503 41.2103 45.672L40.855 52.9749L39.8745 73.4274L39.7182 76.597Z" fill="#2437A8"/>
<path fill-rule="evenodd" clip-rule="evenodd" d="M39.8744 73.4271C51.7828 75.0333 65.6743 76.2969 80.5236 77.0179C95.7005 77.7603 109.932 77.8388 122.125 77.3677L123.105 57.0508C111.019 55.3946 96.8444 54.0882 81.6612 53.3529C66.8105 52.6319 52.8699 52.5391 40.8549 52.9746L39.8744 73.4271Z" fill="#5E93D1"/>
<path d="M75.457 153.758L76.1327 130.317C76.1327 130.317 47.7856 132.585 41.7212 129.42C41.7212 129.42 34.3104 91.0516 43.1494 69.8038L43.3284 68.9757L103.149 63.3725L107.151 95.5708C109.166 89.5985 125.148 83.6929 129.496 92.2451C138.916 110.777 105.232 123.254 105.232 123.254L108.652 154.04" fill="#E576C6"/>
<path opacity="0.398112" fill-rule="evenodd" clip-rule="evenodd" d="M76.1327 130.317L95.2473 126.199L76.2243 139.111L76.1327 130.317Z" fill="black"/>
<path fill-rule="evenodd" clip-rule="evenodd" d="M60.3645 92.0126L53.7595 108.239L61.6761 108.34L60.3645 92.0126Z" fill="#405FD3"/>
<path fill-rule="evenodd" clip-rule="evenodd" d="M67.8957 96.6235C67.5028 98.8087 68.9465 100.9 71.1215 101.295C73.2964 101.691 75.3775 100.24 75.7712 98.0548C76.1648 95.8696 74.7203 93.7787 72.5461 93.3832C70.3712 92.9877 68.2893 94.4383 67.8957 96.6235Z" fill="#0D0B6D"/>
<path fill-rule="evenodd" clip-rule="evenodd" d="M47.1205 96.6235C46.7276 98.8087 48.1713 100.9 50.3463 101.295C52.5212 101.691 54.6023 100.24 54.996 98.0548C55.3896 95.8696 53.9451 93.7787 51.7709 93.3832C49.5959 92.9877 47.5141 94.4383 47.1205 96.6235Z" fill="#0D0B6D"/>
<path fill-rule="evenodd" clip-rule="evenodd" d="M68.5779 112.935C68.5779 112.935 65.8119 117.443 60.3316 117.061L68.5779 112.935Z" fill="white"/>
<path d="M68.5779 112.935C68.5779 112.935 65.8119 117.443 60.3316 117.061" stroke="#252535" stroke-width="4"/>
<path fill-rule="evenodd" clip-rule="evenodd" d="M39.9659 81.7358L40.9076 76.8637C42.5325 70.3825 91.3706 72.8568 91.3706 72.8568L90.7048 81.5739L91.5263 85.7405C131.044 86.8781 161.709 83.4091 161.998 77.4186C162.313 70.8823 126.347 63.82 81.6637 61.6434C36.9815 59.4675 0.503113 63.0019 0.187637 69.5381C-0.0227966 73.9078 15.9821 78.5129 39.9659 81.7358L39.9659 81.7358Z" fill="#2437A8"/>
<path fill-rule="evenodd" clip-rule="evenodd" d="M100.365 105.637C100.425 105.5 100.487 105.361 100.553 105.219C106.791 91.8056 117.728 89.0164 120.747 88.4913C121.263 84.15 121.656 80.6805 121.656 80.6805C122.138 74.7482 91.3712 72.8564 91.3712 72.8564C91.3712 72.8564 88.3678 100.8 90.2649 103.184C91.4452 104.67 95.5976 105.357 100.365 105.637Z" fill="#19141E"/>
</svg>
