<svg width="162" height="155" viewBox="0 0 162 155" fill="none" xmlns="http://www.w3.org/2000/svg">
<path d="M75.0544 154.191L75.7313 130.646C75.7313 130.646 47.3044 132.924 41.2237 129.745C41.2237 129.745 33.7913 91.2049 42.6551 69.8623L42.8347 69.0305L102.824 61.9681L106.594 96.1354C108.614 90.1364 124.886 83.8134 129.245 92.4038C138.692 111.018 104.913 123.552 104.913 123.552L108.343 154.474" fill="#E576C6"/>
<path opacity="0.397786" fill-rule="evenodd" clip-rule="evenodd" d="M75.7313 130.646L94.9004 126.509L75.8239 139.479L75.7313 130.646Z" fill="black"/>
<path fill-rule="evenodd" clip-rule="evenodd" d="M59.9194 92.1703L53.2958 108.469L61.2347 108.571L59.9194 92.1703Z" fill="#405FD3"/>
<path fill-rule="evenodd" clip-rule="evenodd" d="M67.472 96.8017C67.0773 98.9966 68.5258 101.098 70.7062 101.494C72.8872 101.891 74.9749 100.434 75.3696 98.2394C75.7644 96.0445 74.3151 93.9442 72.1348 93.547C69.9537 93.1497 67.8667 94.6068 67.472 96.8017Z" fill="#0D0B6D"/>
<path fill-rule="evenodd" clip-rule="evenodd" d="M46.6383 96.8017C46.2436 98.9966 47.6921 101.098 49.8725 101.494C52.0535 101.891 54.1412 100.434 54.536 98.2394C54.9307 96.0445 53.4814 93.9442 51.3011 93.547C49.12 93.1497 47.0331 94.6068 46.6383 96.8017Z" fill="#0D0B6D"/>
<path fill-rule="evenodd" clip-rule="evenodd" d="M68.156 113.186C68.156 113.186 65.3814 117.714 59.8857 117.331L68.156 113.186Z" fill="white"/>
<path d="M68.156 113.186C68.156 113.186 65.3814 117.714 59.8857 117.331" stroke="#252535" stroke-width="4"/>
<path fill-rule="evenodd" clip-rule="evenodd" d="M104.096 99.0005C106.847 95.433 109.912 93.0708 112.681 91.5103L112.029 77.871L83.8489 72.9255C86.1559 88.5604 96.3688 95.7545 104.096 99.0005Z" fill="#19141E"/>
<path d="M133.305 73.6313C133.305 73.6313 142.907 38.9621 115.275 19.8295C81.0736 -3.85217 41.4864 58.3658 41.4864 58.3658" fill="#CE3D29"/>
<path fill-rule="evenodd" clip-rule="evenodd" d="M108.642 11.657C107.108 19.4866 112.171 27.0853 119.951 28.6291C127.731 30.1737 135.283 25.0782 136.817 17.2486C138.351 9.41831 133.288 1.81961 125.507 0.275778C117.727 -1.26806 110.176 3.82738 108.642 11.657ZM140.348 77.6175C140.987 74.0071 138.651 70.5415 135.082 69.8037L44.2209 51.016C40.7972 50.3082 37.4049 52.359 36.4188 55.7335L31.2765 73.3245C30.1378 77.2188 32.6409 81.2387 36.6197 81.907L130.056 97.5991C133.69 98.2094 137.135 95.7627 137.781 92.1129L140.348 77.6175ZM119.075 36.4508L134.904 58.3269L94.9996 48.7915L94.9004 48.8424L94.8416 48.7538L56.1896 39.5177L80.999 27.8827L94.8416 48.7538L94.9996 48.7915L119.075 36.4508Z" fill="#2437A8"/>
</svg>
