<svg width="162" height="154" viewBox="0 0 162 154" fill="none" xmlns="http://www.w3.org/2000/svg">
<path d="M75.5414 153.009L76.2224 129.628C76.2224 129.628 47.6545 131.89 41.5438 128.733C41.5438 128.733 34.0748 90.4611 42.9831 69.2669L43.1635 68.4416L103.448 61.4277L106.187 96.7329C108.218 90.7764 125.618 83.121 129.999 91.6517C139.493 110.136 105.547 122.583 105.547 122.583L108.994 153.29" fill="#CE3D29"/>
<path opacity="0.403344" fill-rule="evenodd" clip-rule="evenodd" d="M76.222 129.628L95.4857 125.52L76.3144 138.4L76.222 129.628Z" fill="black"/>
<path fill-rule="evenodd" clip-rule="evenodd" d="M60.3322 91.4198L53.6759 107.605L61.6533 107.706L60.3322 91.4198Z" fill="#405FD3"/>
<path fill-rule="evenodd" clip-rule="evenodd" d="M67.922 96.0192C67.5253 98.1988 68.981 100.285 71.1721 100.679C73.3639 101.073 75.4619 99.6265 75.8579 97.4469C76.2546 95.2672 74.7989 93.1815 72.6078 92.787C70.416 92.3926 68.318 93.8395 67.922 96.0192Z" fill="#0D0B6D"/>
<path fill-rule="evenodd" clip-rule="evenodd" d="M46.9855 96.0192C46.5888 98.1988 48.0446 100.285 50.2356 100.679C52.4274 101.073 54.5254 99.6265 54.9214 97.4469C55.3181 95.2672 53.8624 93.1815 51.6713 92.787C49.4795 92.3926 47.3815 93.8395 46.9855 96.0192Z" fill="#0D0B6D"/>
<path d="M100.461 105.436C100.572 105.164 100.695 104.883 100.832 104.593C105.434 94.7989 112.573 90.6834 117.262 88.9756C119.825 85.2057 121.845 80.9898 122.515 76.5494C124.642 62.5002 120.924 49.6593 112.628 45.9793C104.23 42.2538 84.3383 44.1215 62.0029 44.1215C35.185 44.1215 33.7079 41.4926 33.7079 41.4926C33.7079 41.4926 10.0678 74.6638 53.7133 73.6997C76.5851 73.1941 89.5998 73.7645 89.5998 73.7645L100.461 105.436Z" fill="#19141E"/>
<path fill-rule="evenodd" clip-rule="evenodd" d="M65.4763 118.018C65.4763 118.018 61.3691 121.369 56.2709 119.221L65.4763 118.018Z" fill="white"/>
<path d="M65.4763 118.018C65.4763 118.018 61.3691 121.369 56.2709 119.221" stroke="#252535" stroke-width="4"/>
<path fill-rule="evenodd" clip-rule="evenodd" d="M72.4102 114.521C72.4102 114.521 70.189 108.747 59.6689 109.18C49.1489 109.612 47.8442 116.767 47.8442 116.767L72.4102 114.521Z" fill="#19141E"/>
</svg>
