<svg width="162" height="154" viewBox="0 0 162 154" fill="none" xmlns="http://www.w3.org/2000/svg">
<path d="M75.3699 153.079L76.0529 129.65C76.0529 129.65 47.3986 131.917 41.2685 128.753C41.2685 128.753 34.6608 94.2444 42.8931 68.3375L103.362 61.3099L107.664 95.8573C109.701 89.8879 125.6 83.0477 129.995 91.5958C139.517 110.118 105.467 122.59 105.467 122.59L108.925 153.36" fill="#5E93D1"/>
<path opacity="0.399344" fill-rule="evenodd" clip-rule="evenodd" d="M76.0529 129.65L95.3746 125.533L76.1456 138.439L76.0529 129.65Z" fill="black"/>
<path fill-rule="evenodd" clip-rule="evenodd" d="M60.1144 91.3631L53.4371 107.582L61.4396 107.683L60.1144 91.3631Z" fill="#2437A8"/>
<path fill-rule="evenodd" clip-rule="evenodd" d="M67.7273 95.9721C67.3295 98.1562 68.7896 100.247 70.9874 100.641C73.1859 101.037 75.2896 99.5861 75.6875 97.4027C76.0854 95.2186 74.6252 93.1279 72.4274 92.7326C70.2289 92.3381 68.1245 93.788 67.7273 95.9721Z" fill="#0D0B6D"/>
<path fill-rule="evenodd" clip-rule="evenodd" d="M46.727 95.9721C46.3291 98.1562 47.7893 100.247 49.9871 100.641C52.1856 101.037 54.2893 99.5861 54.6871 97.4027C55.085 95.2186 53.6249 93.1279 51.4271 92.7326C49.2286 92.3381 47.1242 93.788 46.727 95.9721Z" fill="#0D0B6D"/>
<path fill-rule="evenodd" clip-rule="evenodd" d="M68.4169 112.275C68.4169 112.275 65.6201 116.781 60.0804 116.399L68.4169 112.275Z" fill="white"/>
<path d="M68.4169 112.275C68.4169 112.275 65.6201 116.781 60.0804 116.399" stroke="#252535" stroke-width="4"/>
<path d="M119.093 88.4733C121.778 78.5523 131.495 41.9319 130.35 35.6804C129.025 28.4352 123.949 19.541 97.865 10.2123C75.7652 2.30851 63.299 8.03174 59.5225 12.9016C53.7767 20.3116 42.8934 68.338 42.8934 68.338C42.8934 68.338 51.8985 74.7048 83.8323 73.6067C83.8323 73.6067 79.4116 92.7072 97.5332 91.6098C97.5332 91.6098 95.5912 98.0421 104.361 100.065C109.172 92.6312 115.558 89.6269 119.093 88.4733Z" fill="#19141E"/>
</svg>
