<svg width="162" height="155" viewBox="0 0 162 155" fill="none" xmlns="http://www.w3.org/2000/svg">
<path d="M75.0321 153.308L75.7192 129.464C75.7192 129.464 46.892 131.771 40.7251 128.551C40.7251 128.551 33.189 89.522 42.1774 67.9085L42.3595 67.0668L103.192 59.9141L106.977 94.5756C109.026 88.5013 125.563 82.0367 129.984 90.7362C139.564 109.587 105.31 122.279 105.31 122.279L108.788 153.594" fill="#5E93D1"/>
<path opacity="0.400274" fill-rule="evenodd" clip-rule="evenodd" d="M75.7191 129.464L95.1569 125.274L75.8123 138.409L75.7191 129.464Z" fill="black"/>
<path fill-rule="evenodd" clip-rule="evenodd" d="M59.6845 90.4996L52.9678 107.005L61.0176 107.108L59.6845 90.4996Z" fill="#2437A8"/>
<path fill-rule="evenodd" clip-rule="evenodd" d="M67.3431 95.1903C66.9428 97.4131 68.4117 99.5401 70.6234 99.9424C72.8344 100.345 74.9514 98.8684 75.351 96.6463C75.7513 94.4235 74.2831 92.2958 72.0714 91.8936C69.8597 91.492 67.7434 92.9675 67.3431 95.1903Z" fill="#0D0B6D"/>
<path fill-rule="evenodd" clip-rule="evenodd" d="M46.2165 95.1903C45.8162 97.4131 47.2851 99.5401 49.4968 99.9424C51.7078 100.345 53.8248 98.8684 54.2244 96.6463C54.6247 94.4235 53.1565 92.2958 50.9448 91.8936C48.7331 91.492 46.6168 92.9675 46.2165 95.1903Z" fill="#0D0B6D"/>
<path fill-rule="evenodd" clip-rule="evenodd" d="M68.0366 111.782C68.0366 111.782 65.2231 116.368 59.6501 115.979L68.0366 111.782Z" fill="white"/>
<path d="M68.0366 111.782C68.0366 111.782 65.2231 116.368 59.6501 115.979" stroke="#252535" stroke-width="4"/>
<path fill-rule="evenodd" clip-rule="evenodd" d="M106.61 94.9449C111.152 90.2113 116.096 88.2058 119.094 87.3728L118.522 75.4268L89.9466 70.4185C91.9158 83.7456 99.5646 91.0167 106.61 94.9449Z" fill="#EACB47"/>
<path fill-rule="evenodd" clip-rule="evenodd" d="M40.491 72.5689C43.0654 70.1072 59.845 69.3447 80.0154 70.906C84.7069 71.2691 89.2047 71.7266 93.3636 72.2567C107.113 73.9922 117.229 76.4612 118.876 78.6324C120.702 51.5029 104.171 35.3457 82.5277 33.8426C68.3283 32.855 55.4512 38.4247 47.7432 50.0288C43.7988 55.9761 41.2035 63.5137 40.491 72.5689Z" fill="#393954"/>
<path fill-rule="evenodd" clip-rule="evenodd" d="M40.1656 73.1061H40.1729C40.2003 72.9173 40.3109 72.7358 40.4908 72.5688C43.0652 70.1071 59.8448 69.3446 80.0152 70.9059C84.7074 71.2689 89.2045 71.7264 93.3634 72.2565C87.4472 66.607 76.625 57.6751 63.8585 53.6667C58.399 51.953 52.8628 50.704 47.7429 50.0286C35.3152 48.373 25.3442 50.0722 24.8456 56.5569C24.2026 64.9949 38.0204 72.0605 40.1656 73.1061Z" fill="#161629"/>
</svg>
