<svg width="162" height="154" viewBox="0 0 162 154" fill="none" xmlns="http://www.w3.org/2000/svg">
<path d="M75.3704 153.413L76.0527 129.883C76.0527 129.883 47.3983 132.16 41.2683 128.983C41.2683 128.983 35.2136 90.2463 42.8929 68.3066L103.363 61.2487L107.78 96.3998C109.817 90.4047 125.6 83.0802 129.994 91.6652C139.517 110.268 105.467 122.793 105.467 122.793L108.925 153.696" fill="#E576C6"/>
<path d="M105.65 98.4719C111.417 90.5739 118.883 88.3874 120.943 87.9167C123.455 76.6734 126.406 47.5668 91.2355 42.9495C49.2465 37.4373 42.8931 68.3067 42.8931 68.3067L96.9813 67.6453V96.3097L105.65 98.4719Z" fill="#FCBDA4"/>
<path opacity="0.402158" fill-rule="evenodd" clip-rule="evenodd" d="M76.0528 129.883L95.3745 125.749L76.1461 138.711L76.0528 129.883Z" fill="black"/>
<path fill-rule="evenodd" clip-rule="evenodd" d="M60.1145 91.4314L53.4371 107.72L61.4403 107.822L60.1145 91.4314Z" fill="#405FD3"/>
<path fill-rule="evenodd" clip-rule="evenodd" d="M67.7272 96.0602C67.3293 98.2538 68.7895 100.353 70.9873 100.75C73.1857 101.147 75.2902 99.6899 75.6873 97.4971C76.0852 95.3035 74.6251 93.2038 72.4273 92.8068C70.2288 92.4106 68.1251 93.8667 67.7272 96.0602Z" fill="#0D0B6D"/>
<path fill-rule="evenodd" clip-rule="evenodd" d="M46.7269 96.0602C46.329 98.2538 47.7891 100.353 49.9869 100.75C52.1854 101.147 54.2898 99.6899 54.687 97.4971C55.0849 95.3035 53.6247 93.2038 51.4269 92.8068C49.2284 92.4106 47.1248 93.8667 46.7269 96.0602Z" fill="#0D0B6D"/>
<path fill-rule="evenodd" clip-rule="evenodd" d="M68.4169 112.434C68.4169 112.434 65.6201 116.959 60.0804 116.576L68.4169 112.434Z" fill="white"/>
<path d="M68.4169 112.434C68.4169 112.434 65.6201 116.959 60.0804 116.576" stroke="#252535" stroke-width="4"/>
</svg>
