<svg width="162" height="154" viewBox="0 0 162 154" fill="none" xmlns="http://www.w3.org/2000/svg">
<path fill-rule="evenodd" clip-rule="evenodd" d="M36.1113 71.0759C36.1113 82.515 43.4676 91.7879 52.5418 91.7879C61.6153 91.7879 68.9716 82.515 68.9716 71.0759C68.9716 59.6368 61.6153 50.3639 52.5418 50.3639C43.4676 50.3639 36.1113 59.6368 36.1113 71.0759Z" fill="#19141E"/>
<path d="M74.992 153.127L75.6796 129.338C75.6796 129.338 46.8329 131.64 40.6617 128.427C40.6617 128.427 33.1196 89.4867 42.1151 67.9228L42.2973 67.0831L103.172 59.9475L106.585 94.9533C108.635 88.8921 125.559 82.0193 129.983 90.6988C139.569 109.506 105.291 122.17 105.291 122.17L108.772 153.412" fill="#E576C6"/>
<path opacity="0.398926" fill-rule="evenodd" clip-rule="evenodd" d="M75.6795 129.338L95.1316 125.158L75.7727 138.263L75.6795 129.338Z" fill="black"/>
<path fill-rule="evenodd" clip-rule="evenodd" d="M60.1301 94.5084L53.4086 110.976L61.4641 111.079L60.1301 94.5084Z" fill="#405FD3"/>
<path fill-rule="evenodd" clip-rule="evenodd" d="M67.2981 95.1424C66.8975 97.3601 68.3675 99.4829 70.58 99.8835C72.7933 100.285 74.9118 98.812 75.3116 96.595C75.7122 94.3773 74.243 92.2546 72.0297 91.8532C69.8165 91.4525 67.6987 92.9247 67.2981 95.1424Z" fill="#0D0B6D"/>
<path fill-rule="evenodd" clip-rule="evenodd" d="M44.7105 95.1424C44.3099 97.3601 45.7799 99.4829 47.9924 99.8835C50.2057 100.285 52.3242 98.812 52.724 96.595C53.1246 94.3773 51.6554 92.2546 49.4421 91.8532C47.2289 91.4525 45.1111 92.9247 44.7105 95.1424Z" fill="#0D0B6D"/>
<path d="M102.064 100.928C107.836 91.029 116.187 88.01 119.935 87.1247C121.43 82.7946 122.57 77.7727 123.371 72.4318C125.518 58.1374 115.147 45.0957 106.77 41.3508C98.2897 37.561 83.6683 32.3091 62.2661 39.4381C47.8775 44.2343 38.6803 32.7517 30.2134 37.6559C15.7453 46.0383 29.2026 82.7371 65.8893 73.4142C92.1316 66.7452 92.8062 68.4181 93.031 73.2657C93.7586 88.9349 96.1969 98.1531 102.064 100.928Z" fill="#2F2F3D"/>
<path fill-rule="evenodd" clip-rule="evenodd" d="M71.3203 111.691C71.3203 111.691 68.7339 116.401 63.144 116.289L71.3203 111.691Z" fill="white"/>
<path d="M71.3203 111.691C71.3203 111.691 68.7339 116.401 63.144 116.289" stroke="#252535" stroke-width="4"/>
<path fill-rule="evenodd" clip-rule="evenodd" d="M62.0819 95.3395C62.0819 100.495 66.2532 104.674 71.3984 104.674C76.5429 104.674 80.7141 100.495 80.7141 95.3395C80.7141 90.184 76.5429 86.0044 71.3984 86.0044C66.2532 86.0044 62.0819 90.184 62.0819 95.3395Z" stroke="#252535" stroke-width="4"/>
<path fill-rule="evenodd" clip-rule="evenodd" d="M38.6246 95.3395C38.6246 100.495 42.7958 104.674 47.9403 104.674C53.0855 104.674 57.2568 100.495 57.2568 95.3395C57.2568 90.184 53.0855 86.0044 47.9403 86.0044C42.7958 86.0044 38.6246 90.184 38.6246 95.3395Z" stroke="#252535" stroke-width="4"/>
<path d="M58.0156 95.7722H62.0437" stroke="#252535" stroke-width="4"/>
<path d="M80.7143 95.3395H103.727" stroke="#252535" stroke-width="4"/>
</svg>
