<svg width="118" height="97" viewBox="0 0 118 97" fill="none" xmlns="http://www.w3.org/2000/svg">
<path fill-rule="evenodd" clip-rule="evenodd" d="M117.582 58.5575C116.602 71.8036 105.443 78.3491 96.7307 81.4589L97.4114 85.1132C98.4705 90.7999 93.749 96 87.5249 96H30.5552C24.4449 96 19.754 90.9792 20.6245 85.3714L21.187 81.7489C12.1784 78.7841 -0.307809 72.6225 0.00579283 61.2894C0.490506 43.7692 19.6358 27.2864 29.8141 19.7402C33.4977 15.7424 38.7823 14.1579 46.3765 11.8809L46.3771 11.8802C47.2371 11.6226 48.1262 11.3562 49.0459 11.0762C49.0459 11.0762 73.4856 7.08275 85.8605 12.9021C89.1054 14.428 91.7759 16.6068 93.9674 19.0817C104.05 27.2696 118.792 42.1705 117.582 58.5575Z" fill="#1E9DBC"/>
<path opacity="0.199009" d="M28.8092 46.2678L30.2154 46.9337L29.312 48.8411L27.7577 47.4135L28.8092 46.2678ZM35.2337 32.7018L33.8281 32.036L34.4939 30.6295L35.8995 31.2954L35.2337 32.7018ZM38.0455 34.0336L38.7113 32.6278L40.1169 33.2937L39.4511 34.6995L38.0455 34.0336ZM30.7176 49.507L29.312 48.8411L30.7176 49.507ZM29.8147 51.4144L31.2203 52.0803L30.3175 53.9877L28.7625 52.5601L29.8147 51.4144ZM28.2598 49.9868L27.2082 51.1331L28.2598 49.9868ZM26.3471 48.2306L25.2949 49.3769L24.1487 48.3246L25.2009 47.1783L26.3471 48.2306ZM28.4508 45.938L27.3047 44.8863L28.3569 43.74L29.5024 44.7923L28.4508 45.938ZM27.9064 48.1746L26.5001 47.5087L27.9064 48.1746ZM28.8092 46.2678L27.4036 45.6013L28.3071 43.6945L29.8614 45.1215L28.8092 46.2678ZM27.828 48.3402L27.1622 49.746L25.7566 49.0801L26.4224 47.6743L27.828 48.3402ZM29.1825 48.9818L29.8483 47.5759L31.7555 48.4789L30.3287 50.0341L29.1825 48.9818ZM28.2598 49.9868L27.2082 51.1331L26.0621 50.0808L27.1143 48.9351L28.2598 49.9868ZM35.5877 56.7141L36.7333 57.7665L35.6817 58.9121L34.5356 57.8604L35.5877 56.7141ZM37.6915 54.4221L38.743 53.2758L39.8892 54.3281L38.8376 55.4738L37.6915 54.4221ZM30.3642 47.6948L29.312 48.8411L30.3642 47.6948ZM81.5584 47.8529L82.9534 47.1633L81.5584 47.8529ZM72.8478 30.2275L71.4534 30.917L70.764 29.5224L72.1584 28.8329L72.8478 30.2275ZM82.2515 49.255L82.9478 50.6459L81.5497 51.346L80.8571 49.9439L82.2515 49.255ZM83.6497 48.5549L82.9534 47.1633L83.6497 48.5549ZM88.5808 46.0861L89.9715 45.3897L90.6677 46.7806L89.2771 47.477L88.5808 46.0861ZM87.1883 43.3037L86.492 41.9122L87.8827 41.2158L88.5789 42.6073L87.1883 43.3037ZM83.6546 45.0723L84.3509 46.4639L82.9534 47.1633L82.2602 45.7619L83.6546 45.0723ZM75.6366 28.849L74.9478 27.4544L76.3422 26.7649L77.0317 28.1595L75.6366 28.849ZM82.2571 45.7725L82.9534 47.1633L82.2571 45.7725ZM83.6546 45.0723L82.9584 43.6815L84.3565 42.9813L85.0497 44.3828L83.6546 45.0723ZM65.4695 54.1769L64.0788 54.8733L63.3825 53.4818L64.7732 52.7854L65.4695 54.1769ZM66.862 56.9593L67.5583 58.3508L66.1676 59.0472L65.4713 57.6557L66.862 56.9593ZM83.6497 48.5549L85.0403 47.8585L85.7366 49.2494L84.3459 49.9457L83.6497 48.5549ZM83.3989 48.0539L82.0076 48.7503L81.3082 47.3519L82.7095 46.6593L83.3989 48.0539ZM84.789 47.3668L86.1834 46.6773L86.8728 48.0719L85.4784 48.7615L84.789 47.3668ZM84.3478 46.4744L82.9534 47.1633L84.3478 46.4744ZM27.4036 45.6013L33.8281 32.036L36.6393 33.3677L30.2154 46.9337L27.4036 45.6013ZM35.8995 31.2954L38.7113 32.6278L37.3797 35.4394L34.5679 34.1077L35.8995 31.2954ZM39.4511 34.6995L32.1238 50.1729L29.312 48.8411L36.6393 33.3677L39.4511 34.6995ZM32.1238 50.1729L31.2203 52.0803L28.4085 50.7485L29.312 48.8411L32.1238 50.1729ZM28.7625 52.5601L27.2082 51.1331L29.312 48.8411L30.8663 50.2681L28.7625 52.5601ZM27.2082 51.1331L25.2949 49.3769L27.3986 47.0843L29.312 48.8411L27.2082 51.1331ZM25.2009 47.1783L27.3047 44.8863L29.5969 46.9903L27.4926 49.2823L25.2009 47.1783ZM29.5024 44.7923L29.8614 45.1215L27.7577 47.4135L27.3986 47.0843L29.5024 44.7923ZM26.5001 47.5087L27.4036 45.6013L30.2154 46.9337L29.312 48.8411L26.5001 47.5087ZM26.4224 47.6743L26.5001 47.5087L29.312 48.8411L29.2336 49.006L26.4224 47.6743ZM28.5168 50.3876L27.1622 49.746L28.4937 46.9337L29.8483 47.5759L28.5168 50.3876ZM27.1143 48.9351L28.037 47.9294L30.3287 50.0341L29.4059 51.0392L27.1143 48.9351ZM34.5356 57.8604L27.2082 51.1331L29.312 48.8411L36.6393 55.5678L34.5356 57.8604ZM38.8376 55.4738L36.7333 57.7665L34.4416 55.6624L36.5453 53.3698L38.8376 55.4738ZM31.4157 46.5485L38.743 53.2758L36.6393 55.5678L29.312 48.8411L31.4157 46.5485ZM29.8614 45.1215L31.4157 46.5485L29.312 48.8411L27.7577 47.4135L29.8614 45.1215ZM80.164 48.5424L71.4534 30.917L74.2422 29.5386L82.9534 47.1633L80.164 48.5424ZM80.8571 49.9439L80.164 48.5424L82.9534 47.1633L83.6459 48.5654L80.8571 49.9439ZM84.3459 49.9457L82.9478 50.6459L81.5553 47.8635L82.9534 47.1633L84.3459 49.9457ZM89.2771 47.477L84.3459 49.9457L82.9534 47.1633L87.8845 44.6946L89.2771 47.477ZM88.5789 42.6073L89.9715 45.3897L87.1895 46.7825L85.797 44.0001L88.5789 42.6073ZM82.9584 43.6815L86.492 41.9122L87.8845 44.6946L84.3509 46.4639L82.9584 43.6815ZM77.0317 28.1595L85.049 44.3828L82.2602 45.7619L74.2422 29.5386L77.0317 28.1595ZM72.1584 28.8329L74.9478 27.4544L76.3261 30.2437L73.5373 31.6221L72.1584 28.8329ZM81.5608 44.3809L82.9584 43.6815L84.3515 46.4639L82.9534 47.1633L81.5608 44.3809ZM64.7732 52.7854L81.5608 44.3809L82.9534 47.1633L66.1658 55.5678L64.7732 52.7854ZM65.4713 57.6557L64.0788 54.8733L66.8608 53.4805L68.2533 56.2629L65.4713 57.6557ZM84.3459 49.9457L67.5583 58.3508L66.1658 55.5678L82.9534 47.1633L84.3459 49.9457ZM84.7896 47.3575L85.0403 47.8585L82.2584 49.2512L82.0076 48.7503L84.7896 47.3575ZM85.4784 48.7615L84.0883 49.4485L82.7095 46.6593L84.0995 45.9722L85.4784 48.7615ZM85.7422 45.7849L86.1834 46.6773L83.3945 48.0564L82.9534 47.1633L85.7422 45.7849ZM85.0497 44.3828L85.7422 45.7849L82.9534 47.1633L82.2602 45.7619L85.0497 44.3828Z" fill="black"/>
<path opacity="0.203218" fill-rule="evenodd" clip-rule="evenodd" d="M51.0413 27.6211C51.0413 29.1409 52.2702 30.3724 53.786 30.3724C55.3023 30.3724 56.5312 29.1409 56.5312 27.6211C56.5312 26.1014 53.786 22.2306 53.786 22.2306C53.786 22.2306 51.0413 26.1014 51.0413 27.6211Z" fill="black"/>
<path opacity="0.195964" d="M77.6807 82.4184C77.6807 82.4184 66.2274 82.2628 66.1658 54.0007" stroke="black" stroke-width="5"/>
<path opacity="0.199009" d="M27.3999 81.0992C27.3999 81.0992 36.1284 80.9567 36.1751 55.1497" stroke="black" stroke-width="5"/>
<path opacity="0.203497" d="M53.2011 30.3724C51.5024 42.6546 46.9807 54.4407 49.9014 95.985" stroke="black" stroke-width="3"/>
<path fill-rule="evenodd" clip-rule="evenodd" d="M89.5054 14.5064C89.5054 14.5064 86.5666 -0.0372675 67.8221 7.17757e-05C59.0301 0.0181191 57.1926 4.90956 57.7203 10.0985C57.7352 10.2478 58.2871 10.1719 58.6343 10.1234C58.7109 10.1128 58.7774 10.1035 58.826 10.0985C60.1588 9.95846 60.6777 9.92921 61.5221 9.88192C61.6776 9.8732 61.845 9.86386 62.0298 9.85329C62.0628 9.85142 62.0958 9.84955 62.1287 9.84768L54.0436 18.8185L48.8243 5.01038L38.3404 14.0558L54.2364 24.1704C54.2364 24.1704 70.8188 13.6743 76.2757 10.4096L89.5054 14.5064ZM27.4061 89.0387H50.0893H77.6097L77.1711 82.5977C70.2675 80.1507 66.3605 71.788 66.4787 54.0008L50.719 54.2342L36.778 54.4401C36.6405 70.0019 33.815 77.0391 27.8448 82.1583L27.4061 89.0387Z" fill="#EFEFEF"/>
<path opacity="0.201474" d="M53.201 30.3724C51.3686 41.5195 46.9489 54.3368 49.8697 95.8817" stroke="black" stroke-width="3"/>
</svg>
