<svg width="456" height="484" viewBox="0 0 456 484" fill="none" xmlns="http://www.w3.org/2000/svg">
<rect x="25" y="13" width="431" height="388" rx="6" fill="#405FD3"/>
<path d="M223.66 191.758L224.513 162.456C224.513 162.456 188.715 165.291 181.058 161.334C181.058 161.334 171.699 113.37 182.861 86.8086L183.088 85.7743L258.63 76.9841L262.062 121.23C264.606 113.765 286.411 104.171 291.9 114.862C303.797 138.028 261.26 153.627 261.26 153.627L265.579 192.111" fill="#FFA093"/>
<path opacity="0.403344" fill-rule="evenodd" clip-rule="evenodd" d="M224.513 162.456L248.652 157.307L224.629 173.449L224.513 162.456Z" fill="black"/>
<path fill-rule="evenodd" clip-rule="evenodd" d="M204.601 114.572L196.261 134.856L206.257 134.983L204.601 114.572Z" fill="#D34040"/>
<path fill-rule="evenodd" clip-rule="evenodd" d="M214.112 120.336C213.615 123.067 215.439 125.682 218.185 126.176C220.931 126.67 223.56 124.857 224.056 122.125C224.553 119.393 222.729 116.779 219.984 116.285C217.237 115.791 214.608 117.604 214.112 120.336Z" fill="#0D0B6D"/>
<path fill-rule="evenodd" clip-rule="evenodd" d="M187.877 120.336C187.38 123.067 189.204 125.682 191.949 126.176C194.696 126.67 197.325 124.857 197.821 122.125C198.318 119.393 196.494 116.779 193.748 116.285C191.002 115.791 188.373 117.604 187.877 120.336Z" fill="#0D0B6D"/>
<path d="M278.633 76.3881L290 64.544L283.793 58.3478L273.412 69.164L272.401 68.6693L275.079 53.4304L266.53 51.8677L264.384 64.0798C243.679 51.1535 227.327 61.2296 227.327 61.2296C227.327 61.2296 220.728 32.9187 202.461 33.0002C176.437 33.1149 172.42 74.2404 172.42 74.2404C172.42 74.2404 159.304 51.8747 151.846 55.0715C144.388 58.2693 144.182 132.555 247.726 96.3529C247.726 96.3529 238.823 116.839 262.546 121C262.546 121 269.479 110.494 283.5 110C283.5 110 302.269 102.788 278.633 76.3881Z" fill="#19141E"/>
<path fill-rule="evenodd" clip-rule="evenodd" d="M211.047 147.906C211.047 147.906 205.901 152.105 199.512 149.414L211.047 147.906Z" fill="white"/>
<path d="M211.047 147.906C211.047 147.906 205.901 152.105 199.512 149.414" stroke="#252535" stroke-width="4"/>
<path fill-rule="evenodd" clip-rule="evenodd" d="M219.736 143.523C219.736 143.523 216.953 136.286 203.77 136.829C190.588 137.371 188.953 146.338 188.953 146.338L219.736 143.523Z" fill="#823600"/>
<path fill-rule="evenodd" clip-rule="evenodd" d="M271.592 185.529C269.282 189.589 259.152 204.599 235.142 206.019C211.952 207.379 213.672 195.029 214.882 190.899C215.424 190.75 215.967 190.598 216.514 190.446C221.614 189.026 227.041 187.515 234.474 186.74C254.766 184.626 256.358 184.471 271.592 185.529ZM87.7835 251.008C98.8199 272.806 137.562 344.361 165.181 332.949C185.86 324.403 210.616 253.554 210.616 253.554L170.375 229.464L152.293 278.152L115.372 237.804C116.626 229.809 117.63 219.358 115.131 215.674C110.876 209.403 89.3477 190.082 89.3477 190.082L85.4281 222.818L84.7434 220.058C84.7441 219.905 84.7073 219.738 84.6297 219.559L84.6227 219.542C84.6174 219.53 84.612 219.519 84.6065 219.507L83.0217 213.119C83.687 212.781 83.9592 212.3 83.6716 211.633C83.4382 211.092 82.929 210.5 82.2174 209.877L76.8064 188.067C76.8064 188.067 75.0307 188.861 72.4274 190.052C68.24 189.183 53.0764 199.552 52.8463 199.71L52.8434 199.712C49.7554 201.718 57.0994 234.873 63.0644 241.032C67.3081 245.414 80.513 249.192 87.7835 251.008ZM334.314 398.85L331.849 403.557C331.849 403.557 329.618 407.403 327.282 414.116C326.419 416.597 326.007 418.722 325.576 420.948C324.841 424.743 324.05 428.832 320.865 435.478C315.13 447.446 325.388 442.511 329.066 437.287C330.275 435.57 330.917 433.599 331.533 431.708C332.38 429.107 333.178 426.658 335.333 425.228C335.441 425.401 335.561 425.58 335.691 425.775C337.064 427.832 339.568 431.585 341.02 447.36C341.305 450.457 339.909 460.503 339.909 460.503C339.907 460.727 339.903 460.969 339.898 461.226C339.843 464.418 339.749 469.861 342.902 470.748C343.746 470.986 344.845 470.047 344.845 470.047C344.845 470.047 344.515 473.975 347.996 474.757C349.365 475.064 352.084 466.583 352.084 466.583C352.084 466.583 352.498 470.89 355.098 471.369C355.833 471.504 364.511 446.932 364.511 446.932L363.989 452.482L362.837 458.166C362.837 458.166 362.93 461.226 365.373 461.767C366.343 461.982 368.205 456.879 369.95 450.875C372.664 441.533 372.609 434.513 371.81 427.532C371.617 425.839 371.479 424.371 371.353 423.023C370.851 417.656 370.526 414.185 367.542 405.917C367.096 404.68 366.497 403.259 365.827 401.798C367.876 384.013 373.647 331.954 372.94 315.972C372.083 296.587 351.665 253.554 351.665 253.554L310.212 276.865L333.06 318.741L334.314 398.85Z" fill="#FFA093"/>
<path fill-rule="evenodd" clip-rule="evenodd" d="M311.462 363.019H178.472L173.599 280.447L150.258 266.763L166.612 228.944L166.755 228.972C167.437 227.597 168.184 226.17 169.002 224.689C179.151 206.299 196.512 195.929 214.882 190.899C215.179 190.817 215.299 190.759 215.313 190.778C215.348 190.827 214.711 191.366 214.529 193.253C214.274 195.889 215.101 199.467 215.972 200.555C218.026 203.119 221.128 204.575 222.376 204.918C223.624 205.26 224.613 205.46 225.717 205.68C226.491 205.835 230.891 206.163 231.651 206.123C237.913 205.795 240.983 205.503 244.925 204.561C246.321 204.227 247.765 203.847 249.478 203.122C249.8 202.986 250.151 202.841 250.528 202.685C252.379 201.92 254.844 200.901 257.348 199.494C259.995 198.006 262.693 196.043 264.646 194.039C264.834 193.845 265.018 193.657 265.197 193.474C267.248 191.373 268.647 189.939 269.616 188.501C270.271 187.528 270.519 187.205 270.664 187.015C270.752 186.9 270.803 186.834 270.884 186.702C271.099 186.353 271.284 186.045 271.337 185.838C271.394 185.616 271.19 185.521 271.198 185.499C271.203 185.484 271.293 185.499 271.592 185.529C280.952 186.459 291.012 188.889 301.982 194.039C335.912 209.959 355.742 249.959 355.742 249.959L313.692 281.589L311.462 363.019Z" fill="#5ED17E"/>
<path opacity="0.200521" d="M313.694 281.585L303.027 288.846L277.386 258.898" stroke="black" stroke-width="5"/>
<path d="M70.1663 228.647L72.0238 237.79H102.113L87.9198 165H57.8308C58.6107 169 60.4477 178.421 63.3417 193.263L69.2583 190.512L71.1011 190L72.5517 190.082L73.1805 190.512V192.281L66.7486 201.56L71.6688 203.71L79.239 207.694L81.4263 209.213L82.2737 210L82.9657 210.622L83.4067 211.156L83.6716 211.633L83.7854 212.253L83.6716 212.528L83.54 212.739L83.3486 212.929L80.8673 213.809L75.207 212.253H69.6128L77.0798 213.809L82 216.762L83.6716 218.343L84.6164 219.504V220.567L82.9657 221.312L72.5517 220.113L76 221.995L78.2851 223.416L80.3799 224.5L82 226.597V227.631L81.4263 228.239L79.9718 229.015H77.7539H73.2857L70.1663 228.647Z" fill="#5ED17E"/>
<path fill-rule="evenodd" clip-rule="evenodd" d="M102.117 237.79H107.096L92.9026 165H87.9246L102.117 237.79Z" fill="#020101"/>
<path fill-rule="evenodd" clip-rule="evenodd" d="M82.7426 173.451C83.1586 175.577 84.3916 177.126 85.4966 176.909C86.6006 176.693 87.1596 174.794 86.7436 172.668C86.3276 170.541 85.0946 168.993 83.9896 169.209C82.8846 169.426 82.3266 171.325 82.7426 173.451Z" fill="#020101"/>
</svg>
